:SAMPLES-PER-SECOND 30
:FULLY-SPECIFIED
:DEGREES
545
root  5.02464 31.2805 -17.6802 -149.668 -61.9572 169.618
RightUpLeg  -46.5056 -10.6089 5.57232
RightLeg  49.2522 -0.974937 -1.03826
RightFoot  -16.8051 0.0226382 0.530829
RightToes  -17.2152 -0.0664847 -0.154063
Spine  17.108 3.48627 1.5413
Spine1  30.4274 10.488 -3.63525
HEad  -1.88296 9.69465 -6.162
LeftShoulder1  0 -2.42657e-020 -4.95415e-022
LeftArm  -18.7518 -19.6169 -90.4432
LeftForeArm  45.6186 -24.7218 -4.63105
LeftHand  0.300814 -8.27647 -4.52957
RightShoulder  0 2.42657e-020 1.07489e-018
RightArm  -26.6445 37.292 75.5677
RightForeArm  48.8689 19.1647 3.48537
RightHand  -1.52277 22.284 -7.35243
LeftUpLeg  -49.9759 -0.244436 -0.224145
LeftLeg  56.0039 2.21578 2.85695
LeftFoot  -12.6801 -0.0667521 -0.600787
LeftToes  -3.00715 1.28829e-006 1.15665e-007
546
root  4.38494 31.509 -18.8812 -149.974 -61.0265 170.234
RightUpLeg  -43.1672 -8.61769 6.15775
RightLeg  46.4716 -1.73884 -1.645
RightFoot  -17.554 0.0682501 0.819621
RightToes  -15.2508 -0.0565959 -0.137584
Spine  16.8867 4.08585 0.902722
Spine1  29.9308 12.2902 -4.88851
HEad  -1.93485 9.09994 -6.10292
LeftShoulder1  0 -2.42657e-020 -4.95415e-022
LeftArm  -19.6021 -19.4703 -89.4522
LeftForeArm  46.5914 -23.8144 -4.43646
LeftHand  0.302739 -8.24119 -4.57417
RightShoulder  0 2.42657e-020 1.07489e-018
RightArm  -26.7546 38.0478 76.8025
RightForeArm  48.2302 19.8325 3.61903
RightHand  -1.48286 22.4048 -7.10911
LeftUpLeg  -53.5745 -2.53491 -1.51894
LeftLeg  51.2191 1.43913 1.56428
LeftFoot  -10.7391 -0.00297849 -0.0316979
LeftToes  -4.23376 1.28829e-006 1.15665e-007
547
root  3.65427 31.5816 -20.1383 -151.014 -60.5535 171.177
RightUpLeg  -39.4895 -7.34599 7.19201
RightLeg  44.2689 -2.28542 -1.98731
RightFoot  -18.8596 0.107008 1.02188
RightToes  -12.563 -0.0439921 -0.114507
Spine  16.6353 4.68664 0.350012
Spine1  29.3627 14.0546 -6.03754
HEad  -1.21178 8.44762 -5.66076
LeftShoulder1  0 -2.42657e-020 -4.95415e-022
LeftArm  -20.8863 -18.9397 -88.4148
LeftForeArm  47.2496 -23.1158 -4.28867
LeftHand  0.302598 -8.24173 -4.69372
RightShoulder  0 2.42657e-020 1.07489e-018
RightArm  -26.8849 37.9795 78.2017
RightForeArm  47.3578 20.6404 3.78243
RightHand  -1.47067 22.6821 -6.95494
LeftUpLeg  -55.9712 -3.07456 -3.29757
LeftLeg  45.1887 0.757711 0.664131
LeftFoot  -9.16359 0.0261538 0.326348
LeftToes  -6.84535 1.28829e-006 1.15665e-007
548
root  2.89343 31.5227 -21.4716 -152.726 -59.9577 172.808
RightUpLeg  -35.7888 -5.68276 8.62648
RightLeg  42.4484 -3.09703 -2.51079
RightFoot  -20.5715 0.176422 1.34974
RightToes  -8.23762 -0.0260216 -0.076205
Spine  16.343 5.34917 -0.118283
Spine1  28.7884 15.8436 -7.04232
HEad  -0.380352 7.77135 -5.10876
LeftShoulder1  0 -2.42657e-020 -4.95415e-022
LeftArm  -22.3731 -18.1498 -87.3943
LeftForeArm  47.6874 -22.939 -4.25109
LeftHand  0.315115 -7.90919 -4.93012
RightShoulder  0 2.42657e-020 1.07489e-018
RightArm  -26.6378 37.7999 79.5748
RightForeArm  45.6192 21.424 3.944
RightHand  -1.39586 22.9479 -6.50073
LeftUpLeg  -57.3671 -0.730792 -6.67028
LeftLeg  38.3825 1.34358 0.925152
LeftFoot  -7.49732 0.0257243 0.392606
LeftToes  -7.99569 1.28829e-006 1.15665e-007
549
root  2.06654 31.3298 -22.824 -154.737 -59.3322 174.553
RightUpLeg  -32.3601 -5.19343 10.3748
RightLeg  41.7013 -3.20201 -2.52549
RightFoot  -21.7034 0.194468 1.39203
RightToes  -8.47926 -0.0269489 -0.0783796
Spine  16.1459 5.97797 -0.5367
Spine1  28.3786 17.5384 -8.06229
HEad  0.330112 7.42643 -4.40382
LeftShoulder1  0 -2.42657e-020 -4.95415e-022
LeftArm  -23.669 -17.2187 -86.3434
LeftForeArm  47.3997 -23.3774 -4.34319
LeftHand  0.327845 -8.03502 -5.03962
RightShoulder  0 2.42657e-020 1.07489e-018
RightArm  -26.3955 37.631 80.8992
RightForeArm  43.3445 22.198 4.10596
RightHand  -1.19982 23.0056 -5.52232
LeftUpLeg  -58.0573 3.57418 -11.6918
LeftLeg  31.6842 2.37712 1.25954
LeftFoot  -3.0301 0.0179088 0.677096
LeftToes  -12.4727 1.28829e-006 1.15665e-007
550
root  1.24543 31.0095 -24.15 -156.783 -58.6613 176.475
RightUpLeg  -30.5586 -5.82507 12.3927
RightLeg  43.7845 -2.70941 -2.3091
RightFoot  -22.2914 0.171217 1.2466
RightToes  -8.99996 -0.0289782 -0.0830524
Spine  16.0746 6.47309 -0.813106
Spine1  28.2478 18.8927 -8.90992
HEad  0.700759 7.56993 -4.10712
LeftShoulder1  0 -2.42657e-020 -4.95415e-022
LeftArm  -24.2048 -16.6247 -85.4039
LeftForeArm  46.3281 -24.0639 -4.48969
LeftHand  0.330267 -7.90864 -5.14948
RightShoulder  0 2.42657e-020 1.07489e-018
RightArm  -25.7864 38.0358 81.9711
RightForeArm  40.1828 22.8865 4.25273
RightHand  -0.880857 22.981 -3.96231
LeftUpLeg  -59.1944 8.28594 -16.9301
LeftLeg  27.3549 0.877309 0.381262
LeftFoot  -0.409216 0.00352174 0.986137
LeftToes  -16.4934 1.28829e-006 1.15665e-007
551
root  0.434473 30.5414 -25.451 -159.338 -58.6671 178.466
RightUpLeg  -30.846 -9.21934 14.5269
RightLeg  50.458 -0.783266 -0.880897
RightFoot  -20.3727 0.0245181 0.514019
RightToes  -15.39 -0.0572778 -0.138763
Spine  16.5677 6.78058 -0.820202
Spine1  29.1379 19.975 -9.48037
HEad  0.459552 7.91868 -4.10666
LeftShoulder1  0 -2.42657e-020 -4.95415e-022
LeftArm  -23.8281 -16.9868 -84.761
LeftForeArm  44.8001 -24.8042 -4.64996
LeftHand  0.339048 -7.81291 -5.33667
RightShoulder  0 2.42657e-020 1.07489e-018
RightArm  -25.7175 39.1468 82.3297
RightForeArm  37.002 23.8947 4.46794
RightHand  -0.43925 23.073 -1.78219
LeftUpLeg  -59.8802 9.42319 -18.4871
LeftLeg  27.4215 -1.07793 -0.477378
LeftFoot  -1.98194 0.0187579 1.08439
LeftToes  -12.8933 1.28829e-006 1.15665e-007
552
root  -0.394005 29.8945 -26.6919 -161.761 -59.0955 -179.755
RightUpLeg  -33.8724 -15.7469 15.6904
RightLeg  61.788 2.93222 4.60205
RightFoot  -13.0918 -0.108523 -0.568219
RightToes  -34.8935 -0.179029 -0.284498
Spine  17.4383 6.8164 -0.591263
Spine1  30.756 20.5266 -9.72499
HEad  0.00296529 8.42227 -4.82205
LeftShoulder1  0 -2.42657e-020 -4.95415e-022
LeftArm  -23.0944 -18.1517 -84.5833
LeftForeArm  43.3833 -25.1931 -4.73576
LeftHand  0.361336 -7.84716 -5.63954
RightShoulder  0 2.42657e-020 1.07489e-018
RightArm  -25.6532 41.6143 82.1923
RightForeArm  33.9336 24.4324 4.58504
RightHand  -0.024927 22.9842 0.24747
LeftUpLeg  -59.8821 7.15595 -16.4661
LeftLeg  30.976 -1.69322 -0.877382
LeftFoot  -2.43678 0.0257781 1.212
LeftToes  -5.64538 1.28829e-006 1.15665e-007
553
root  -1.14994 29.0034 -27.6451 -161.15 -59.6006 179.48
RightUpLeg  -40.5665 -21.6128 14.3895
RightLeg  76.6401 3.99586 12.5469
RightFoot  -3.05342 0.0120394 0.829456
RightToes  -55.3281 -0.350989 -0.384399
Spine  17.9752 6.52131 -0.702357
Spine1  31.2389 20.6249 -10.8577
HEad  0.429084 8.94571 -5.68756
LeftShoulder1  0 -2.42657e-020 -4.95415e-022
LeftArm  -22.0102 -19.4486 -84.2935
LeftForeArm  42.8018 -24.9309 -4.68003
LeftHand  0.393054 -7.71307 -6.2012
RightShoulder  0 2.42657e-020 1.07489e-018
RightArm  -25.5318 44.3998 82.3437
RightForeArm  32.424 24.6436 4.63137
RightHand  0.413383 23.0883 2.39432
LeftUpLeg  -62.4067 -0.121396 -11.2263
LeftLeg  37.4157 -0.0692134 -0.0510995
LeftFoot  4.75375 -0.0603534 1.45393
LeftToes  4.78438 1.28829e-006 1.15665e-007
554
root  -1.80067 28.0458 -28.6252 -159.303 -61.1442 176.993
RightUpLeg  -47.4323 -24.7365 11.636
RightLeg  89.7158 1.4977 19.2452
RightFoot  5.76106 -0.201657 4.3831
RightToes  -57.8419 -0.374286 -0.392276
Spine  19.3991 5.90213 -0.747513
Spine1  33.2417 19.9404 -11.1399
HEad  -0.357097 7.71902 -5.92571
LeftShoulder1  0 -2.42657e-020 -4.95415e-022
LeftArm  -18.9977 -23.5528 -84.1914
LeftForeArm  43.4472 -23.577 -4.39108
LeftHand  0.4205 -7.88673 -6.46997
RightShoulder  0 2.42657e-020 1.07489e-018
RightArm  -26.9474 48.9011 81.0642
RightForeArm  30.354 25.5553 4.82959
RightHand  0.72317 22.8576 3.94721
LeftUpLeg  -67.6839 -5.2126 -8.01197
LeftLeg  49.5238 2.19714 2.25364
LeftFoot  6.65282 -0.127277 2.18955
LeftToes  0.625627 1.28829e-006 1.15665e-007
555
root  -2.43284 27.1311 -29.6453 -161.167 -61.5344 178.16
RightUpLeg  -52.9586 -23.4656 8.5719
RightLeg  98.2063 -1.91901 24.3528
RightFoot  0.353222 -0.00781881 2.90795
RightToes  -58.4578 -0.380045 -0.39405
Spine  21.5164 6.22626 -0.531669
Spine1  37.0034 20.4204 -9.15444
HEad  -1.61608 5.01679 -5.37689
LeftShoulder1  0 -2.42657e-020 -4.95415e-022
LeftArm  -15.9714 -30.0864 -86.2836
LeftForeArm  47.0182 -21.1242 -3.87916
LeftHand  0.476149 -8.48692 -6.78608
RightShoulder  0 2.42657e-020 1.07489e-018
RightArm  -32.0381 54.7713 76.38
RightForeArm  26.7318 26.2446 4.9822
RightHand  0.837601 22.583 4.56449
LeftUpLeg  -71.237 -4.32992 -7.32271
LeftLeg  59.545 1.45087 2.1284
LeftFoot  2.5747 -0.0476591 2.12055
LeftToes  3.50798 1.28829e-006 1.15665e-007
556
root  -2.87668 26.3059 -30.6452 -164.242 -61.1138 -178.13
RightUpLeg  -59.6849 -20.2839 5.89071
RightLeg  102.244 -3.68005 23.9019
RightFoot  -4.16819 0.0281 1.14991
RightToes  -61.0754 -0.404722 -0.400893
Spine  22.8161 6.91741 -0.0805911
Spine1  39.4428 21.348 -7.18978
HEad  -1.76673 3.50666 -5.22837
LeftShoulder1  0 -2.42657e-020 -4.95415e-022
LeftArm  -14.9185 -34.6948 -88.935
LeftForeArm  48.7786 -20.1011 -3.67023
LeftHand  0.456632 -8.30134 -6.66152
RightShoulder  0 2.42657e-020 1.07489e-018
RightArm  -38.0514 61.1616 72.2414
RightForeArm  23.8566 25.0788 4.7288
RightHand  0.840277 22.1614 4.65999
LeftUpLeg  -74.7197 -3.02524 -4.9754
LeftLeg  67.3677 1.15355 2.31706
LeftFoot  -2.20486 0.0355103 1.84515
LeftToes  3.20062 1.28829e-006 1.15665e-007
557
root  -3.2661 25.6784 -31.5962 -165.075 -62.1949 -176.664
RightUpLeg  -65.5021 -19.1568 0.726202
RightLeg  102.207 -2.8468 19.1942
RightFoot  -8.1693 0.00915458 0.505786
RightToes  -57.4974 -0.371073 -0.391257
Spine  24.1157 6.98431 0.521976
Spine1  41.5471 21.0693 -5.68136
HEad  -2.03375 1.97201 -5.31288
LeftShoulder1  0 -2.42657e-020 -4.95415e-022
LeftArm  -13.4909 -38.1094 -91.3726
LeftForeArm  48.0249 -20.0767 -3.6666
LeftHand  0.316023 -7.97338 -4.90633
RightShoulder  0 2.42657e-020 1.07489e-018
RightArm  -44.9094 67.085 67.6912
RightForeArm  21.0024 23.9291 4.48326
RightHand  0.851575 21.7882 4.79388
LeftUpLeg  -77.5076 -4.07307 -2.53431
LeftLeg  73.2779 0.99 2.6408
LeftFoot  -4.99115 0.070142 1.60925
LeftToes  1.25339 1.28829e-006 1.15665e-007
558
root  -3.61347 25.1085 -32.5711 -166.462 -62.7743 -174.924
RightUpLeg  -69.0237 -17.9668 -5.72695
RightLeg  97.8497 -0.738912 11.7685
RightFoot  -11.2916 0.0882703 1.27051
RightToes  -52.549 -0.325662 -0.374511
Spine  25.5308 7.38617 1.09639
Spine1  44.0533 20.9508 -3.60909
HEad  -2.8015 -0.0962784 -5.33038
LeftShoulder1  0 -2.42657e-020 -4.95415e-022
LeftArm  -10.9484 -41.1569 -94.3648
LeftForeArm  47.2674 -20.4915 -3.75099
LeftHand  0.230123 -7.77994 -3.75661
RightShoulder  0 2.42657e-020 1.07489e-018
RightArm  -56.8806 72.544 57.8596
RightForeArm  17.9853 22.7903 4.24399
RightHand  1.12726 21.6409 6.26466
LeftUpLeg  -79.4368 -3.81289 -0.59314
LeftLeg  78.2502 0.675201 2.41946
LeftFoot  -7.75191 0.0876741 1.29399
LeftToes  -0.587878 1.28829e-006 1.15665e-007
559
root  -3.83178 24.6097 -33.5901 -167.317 -63.421 -173.384
RightUpLeg  -70.7016 -16.8502 -12.4873
RightLeg  89.4641 0.427055 4.27868
RightFoot  -13.148 0.273915 2.75419
RightToes  -44.8404 -0.258259 -0.340801
Spine  26.7021 7.83077 1.43189
Spine1  46.16 20.8154 -1.9995
HEad  -4.00142 -1.65126 -5.31621
LeftShoulder1  0 -2.42657e-020 -4.95415e-022
LeftArm  -8.38324 -43.7989 -96.5383
LeftForeArm  45.9774 -21.2726 -3.91092
LeftHand  0.234084 -7.94892 -3.74138
RightShoulder  0 2.42657e-020 1.07489e-018
RightArm  -74.3954 76.7249 42.6779
RightForeArm  15.1909 21.7874 4.03618
RightHand  1.48975 21.5141 8.2021
LeftUpLeg  -81.2358 -2.4253 0.839492
LeftLeg  82.2062 0.197298 0.937792
LeftFoot  -10.3824 0.0997055 1.10697
LeftToes  -1.59151 1.28829e-006 1.15665e-007
